<?xml version="1.0" standalone="no"?>
<!DOCTYPE svg PUBLIC "-//W3C//DTD SVG 20010904//EN"
 "http://www.w3.org/TR/2001/REC-SVG-20010904/DTD/svg10.dtd">
<svg version="1.0" xmlns="http://www.w3.org/2000/svg"
 width="677.000000pt" height="675.000000pt" viewBox="0 0 677.000000 675.000000"
 preserveAspectRatio="xMidYMid meet">

<g transform="translate(0.000000,675.000000) scale(0.100000,-0.100000)"
fill="#000000" stroke="none">
<path d="M0 3375 l0 -3375 3385 0 3385 0 0 3375 0 3375 -3385 0 -3385 0 0
-3375z m3809 3077 c4 -7 13 -74 20 -150 28 -322 92 -769 130 -908 l11 -41 72
-12 c112 -18 206 -49 239 -79 32 -29 46 -81 35 -126 -15 -61 -100 -122 -202
-147 -27 -6 -52 -15 -57 -18 -4 -4 2 -34 13 -67 18 -50 20 -73 15 -144 -6 -74
-4 -88 12 -110 11 -14 38 -60 61 -103 48 -88 46 -107 -13 -132 -33 -13 -35
-16 -35 -64 0 -27 -4 -53 -10 -56 -6 -3 -10 -15 -10 -26 0 -10 -9 -35 -19 -55
-14 -25 -20 -56 -20 -97 1 -88 -4 -91 -169 -98 -129 -6 -144 -9 -260 -50 -96
-35 -124 -49 -128 -65 -15 -60 43 -242 152 -475 35 -74 64 -141 64 -148 0 -7
-38 23 -84 66 -157 149 -432 352 -596 441 -103 56 -171 74 -243 66 l-58 -7 22
54 c53 133 91 275 93 344 2 84 11 90 76 46 72 -49 73 -48 69 87 l-4 117 -41
50 c-43 51 -124 202 -124 230 0 13 -20 15 -128 15 -173 0 -203 20 -147 102 32
47 128 116 234 167 46 22 86 42 88 45 9 9 -257 866 -306 986 -17 41 -31 78
-31 82 0 20 257 145 390 191 98 34 256 73 350 86 41 6 86 13 100 15 14 3 116
3 228 2 148 -2 205 -5 211 -14z m-1008 -3493 c26 -10 57 -15 70 -13 17 4 20 3
11 -4 -11 -7 -8 -11 10 -15 12 -4 25 -2 26 3 5 13 52 13 52 -1 0 -5 5 -7 11
-4 16 10 3 18 -44 26 -39 6 -39 7 -9 8 46 1 77 -16 61 -35 -6 -8 -17 -14 -25
-14 -12 0 -103 -135 -103 -153 0 -4 -14 -24 -30 -43 -17 -19 -38 -48 -46 -64
-11 -22 -23 -30 -41 -30 l-26 0 18 28 c9 15 50 76 90 136 40 60 71 113 68 118
-3 4 -20 8 -39 8 -39 0 -55 -19 -103 -123 -56 -121 -115 -178 -197 -191 -22
-3 -53 -2 -70 3 l-30 9 38 1 c83 2 122 34 187 151 23 41 60 94 82 116 l40 42
-53 15 c-100 28 -118 30 -144 13 -19 -12 -25 -26 -27 -54 l-1 -37 -4 34 c-3
25 1 39 18 57 42 45 117 49 210 13z m963 -31 c-4 -7 -47 -73 -96 -147 -49 -74
-87 -140 -84 -147 3 -9 -2 -14 -14 -14 -15 0 -20 7 -20 26 l0 25 -33 -25 c-43
-33 -77 -34 -77 -4 l0 21 -24 -22 c-32 -30 -60 -24 -64 12 -3 25 -5 27 -20 15
-9 -7 -1 6 18 29 40 47 94 78 118 67 14 -6 14 -8 -6 -13 -36 -9 -104 -121 -74
-121 13 0 58 51 79 90 14 24 28 36 46 38 15 2 27 0 27 -5 0 -4 -19 -33 -40
-63 -22 -30 -35 -57 -29 -59 24 -8 89 62 168 182 69 105 88 127 108 127 17 0
22 -4 17 -12z m549 -30 c-16 -24 -47 -71 -71 -106 -41 -61 -42 -65 -27 -88 12
-18 13 -29 5 -44 -22 -41 20 -20 79 40 33 33 66 60 75 60 22 0 21 -4 -19 -56
-35 -46 -44 -74 -24 -74 5 0 36 23 67 52 l57 51 -57 -57 c-63 -62 -97 -71
-108 -28 l-5 23 -34 -26 c-19 -14 -44 -25 -54 -25 -17 0 -19 5 -14 35 7 44 -4
44 -34 0 -16 -23 -32 -35 -47 -35 -20 0 -21 2 -11 22 l12 21 -28 -21 c-36 -29
-75 -29 -75 -1 l0 20 -30 -21 c-64 -46 -94 5 -41 70 17 22 31 44 31 51 0 8 4
8 15 -1 20 -17 20 -20 -16 -74 -17 -26 -29 -49 -26 -52 10 -10 74 45 101 86
16 24 34 40 46 40 26 0 26 -2 -15 -59 -57 -79 -43 -96 26 -34 23 21 77 91 121
155 65 98 83 118 103 118 l25 0 -27 -42z m-178 -88 c0 -8 -10 -16 -22 -18 -22
-3 -32 16 -16 32 12 11 38 2 38 -14z m288 14 c11 -12 -13 -43 -28 -38 -22 9
-19 44 3 44 10 0 22 -3 25 -6z m-1247 -53 c-4 -5 -2 -21 4 -36 8 -20 7 -34 -4
-55 -12 -26 -12 -28 3 -24 9 3 0 -4 -19 -15 -43 -25 -86 -27 -98 -5 -6 11 -11
13 -16 5 -4 -6 -11 -11 -15 -11 -10 0 131 148 142 149 5 1 6 -3 3 -8z m134 -8
c5 -93 1 -112 -32 -129 -40 -21 -83 -15 -83 11 -1 19 91 135 107 135 4 0 7 -8
8 -17z m-391 -12 c9 -15 3 -28 -25 -66 -20 -25 -34 -49 -31 -52 10 -9 74 36
101 72 43 56 107 82 120 49 9 -22 -19 -51 -55 -59 -43 -10 -66 -59 -31 -69 9
-2 4 -4 -13 -3 -23 2 -31 7 -33 25 l-3 23 -30 -26 c-17 -14 -41 -25 -55 -25
-19 0 -24 5 -24 27 0 14 11 41 25 59 14 18 25 40 25 48 0 22 17 20 29 -3z
m875 0 c17 -19 17 -19 -3 -14 -25 6 -56 -18 -77 -59 -29 -57 -7 -65 43 -16 27
26 30 34 21 52 -9 17 -8 19 3 9 20 -20 48 -15 73 12 17 18 33 25 54 23 l31 -2
-40 -43 c-22 -24 -45 -54 -51 -68 -7 -16 -19 -25 -35 -25 l-24 0 27 45 c21 37
23 44 8 38 -9 -3 -35 -24 -56 -45 -47 -47 -94 -53 -104 -13 -6 23 -8 24 -23
12 -42 -36 -32 -20 23 37 78 81 100 90 130 57z m502 7 c9 -15 -27 -41 -39 -29
-7 7 -17 6 -29 0 -30 -16 -20 -2 15 20 37 24 43 25 53 9z m-1867 -122 c24 -26
24 -28 4 -17 -24 12 -43 41 -42 63 0 9 2 8 6 -2 3 -8 17 -28 32 -44z m-514
-325 c64 -28 82 -45 113 -106 38 -75 37 -179 -2 -258 -17 -36 -40 -66 -59 -77
-28 -17 -29 -20 -11 -26 42 -16 85 -59 111 -112 24 -50 28 -68 28 -147 -1
-134 -44 -217 -140 -268 -36 -20 -58 -22 -227 -25 l-188 -4 0 520 c0 285 3
522 8 527 4 4 77 5 162 3 132 -4 164 -9 205 -27z m483 -407 l2 -431 23 -21
c13 -12 37 -24 54 -28 25 -5 37 0 64 24 l33 29 -2 404 c-1 222 1 416 4 432 6
27 6 27 95 27 l89 0 0 -440 c0 -481 1 -474 -59 -542 -51 -58 -111 -81 -211
-82 -67 0 -96 5 -138 24 -60 26 -117 86 -132 139 -6 21 -10 214 -10 469 l0
433 93 -3 92 -3 3 -431z m1044 424 c2 -7 2 -41 0 -75 l-4 -63 -94 0 -94 0 0
-450 0 -450 -95 0 -95 0 0 450 0 450 -95 0 -95 0 0 68 c0 38 3 72 7 75 3 4
131 7 284 7 213 0 278 -3 281 -12z m298 -438 l0 -449 123 -3 122 -3 3 -72 3
-73 -221 0 -220 0 0 518 c0 285 3 522 7 525 3 4 46 7 95 7 l88 0 0 -450z m810
375 l0 -74 -132 -3 -133 -3 -3 -127 -3 -128 96 0 c69 0 95 -3 96 -12 0 -7 1
-41 2 -75 l2 -62 -95 -3 -95 -3 -3 -167 -2 -168 145 0 145 0 0 -75 0 -75 -235
0 -235 0 0 525 0 525 225 0 225 0 0 -75z m566 40 c43 -22 67 -43 91 -78 87
-130 58 -365 -56 -457 -22 -18 -41 -39 -41 -45 0 -11 34 -91 141 -327 l48
-108 -98 0 -98 0 -89 210 c-85 202 -89 210 -116 210 l-28 0 0 -210 0 -210 -95
0 -95 0 0 526 0 526 188 -4 c185 -4 189 -4 248 -33z m-2566 -1325 c0 -5 -7
-10 -15 -10 -18 0 -20 -26 -2 -34 10 -5 10 -7 0 -12 -18 -8 -16 -44 2 -44 8 0
15 -4 15 -10 0 -5 -11 -10 -25 -10 -24 0 -25 2 -25 65 0 63 1 65 25 65 14 0
25 -4 25 -10z m109 -15 c3 -17 1 -18 -13 -6 -26 22 -32 4 -8 -22 37 -39 21
-88 -23 -71 -17 7 -21 34 -5 34 6 0 10 -4 10 -10 0 -5 5 -10 10 -10 17 0 11
26 -10 45 -20 18 -26 46 -13 59 14 13 48 1 52 -19z m117 -1 c5 -20 2 -31 -14
-43 -11 -9 -22 -24 -24 -34 -7 -42 -23 -18 -26 41 l-3 62 30 0 c25 0 32 -5 37
-26z m114 6 c8 -14 8 -26 0 -40 -7 -14 -8 -26 0 -39 6 -13 6 -22 1 -26 -6 -3
-17 7 -25 22 l-15 28 -1 -27 c0 -16 -4 -28 -10 -28 -6 0 -10 28 -10 65 0 62 1
65 25 65 14 0 29 -8 35 -20z m110 10 c0 -5 -7 -10 -15 -10 -18 0 -20 -26 -2
-34 10 -5 10 -7 0 -12 -18 -8 -16 -44 2 -44 8 0 15 -4 15 -10 0 -5 -11 -10
-24 -10 -21 0 -25 6 -28 33 -2 17 -1 47 1 65 3 26 8 32 27 32 13 0 24 -4 24
-10z m109 -15 c3 -17 1 -18 -13 -6 -26 22 -31 5 -7 -25 25 -31 27 -59 6 -68
-21 -8 -45 3 -45 20 0 17 17 18 23 2 2 -7 8 -10 12 -5 5 4 -1 21 -13 37 -33
44 -28 74 12 68 12 -2 22 -12 25 -23z m110 0 c3 -17 1 -18 -13 -6 -26 22 -32
4 -8 -22 37 -39 21 -88 -23 -71 -17 7 -21 34 -5 34 6 0 10 -4 10 -10 0 -5 5
-10 10 -10 17 0 11 26 -10 45 -20 18 -26 46 -13 59 14 13 48 1 52 -19z m119
-31 c3 -60 -13 -83 -47 -64 -16 8 -21 21 -21 50 0 57 8 72 39 68 24 -3 26 -7
29 -54z m232 26 c0 -16 5 -30 10 -30 6 0 10 14 10 30 0 20 5 30 15 30 8 0 15
-9 15 -19 0 -11 3 -28 7 -38 6 -14 9 -11 13 16 3 19 10 36 16 38 14 5 -3 -95
-20 -116 -9 -11 -13 -6 -22 25 l-11 39 -7 -37 c-8 -42 -23 -50 -31 -15 -22 98
-23 107 -9 107 9 0 14 -11 14 -30z m168 -32 c-2 -35 -7 -63 -13 -63 -5 0 -11
28 -13 63 -2 51 0 62 13 62 13 0 15 -11 13 -62z m83 31 c7 -24 7 -24 8 4 2 46
19 30 23 -22 6 -84 -10 -110 -30 -48 l-10 32 -1 -32 c-2 -63 -21 -33 -21 33 0
47 3 65 12 62 7 -3 15 -15 19 -29z m139 21 c0 -5 -7 -10 -15 -10 -18 0 -20
-26 -2 -34 10 -5 10 -7 0 -12 -18 -8 -16 -44 2 -44 25 0 17 -16 -10 -18 -24
-2 -25 0 -25 63 0 63 1 65 25 65 14 0 25 -4 25 -10z m135 -22 c1 -15 4 -30 8
-34 14 -14 7 -44 -14 -54 -37 -20 -49 -6 -49 60 0 61 0 61 28 58 22 -2 27 -8
27 -30z m114 -25 c14 -69 14 -73 1 -73 -5 0 -10 7 -10 15 0 8 -7 15 -15 15 -8
0 -15 -7 -15 -15 0 -8 -5 -15 -11 -15 -8 0 -9 11 -5 33 4 17 10 47 13 65 9 50
29 38 42 -25z m126 37 c3 -11 2 -27 -4 -37 -6 -11 -6 -24 0 -35 6 -10 7 -23 3
-30 -4 -7 -13 0 -23 18 l-16 29 -3 -27 c-6 -54 -22 -27 -22 37 l0 65 29 0 c21
0 32 -6 36 -20z m-870 -60 c-3 -5 -15 -10 -26 -10 -10 0 -19 5 -19 10 0 6 12
10 26 10 14 0 23 -4 19 -10z m105 -205 c0 -13 -23 -15 -150 -15 -127 0 -150 2
-150 15 0 13 23 15 150 15 127 0 150 -2 150 -15z m-530 -164 c0 -5 -10 -11
-22 -13 -28 -4 -36 -28 -9 -28 28 0 36 -18 9 -22 -30 -4 -30 -32 0 -36 35 -5
26 -22 -13 -22 l-35 0 0 65 0 65 35 0 c19 0 35 -4 35 -9z m120 -6 c16 -19 5
-34 -12 -17 -16 16 -28 15 -28 -1 0 -8 11 -19 25 -25 14 -6 25 -20 25 -30 0
-38 -46 -56 -70 -27 -17 20 -5 32 15 15 11 -9 19 -10 26 -3 7 7 1 17 -20 32
-33 24 -38 40 -19 59 17 17 43 15 58 -3z m130 5 c0 -5 -4 -10 -9 -10 -6 0 -11
-24 -13 -52 -4 -67 -22 -65 -26 2 -2 37 -7 50 -18 50 -8 0 -12 5 -9 10 3 6 22
10 41 10 19 0 34 -4 34 -10z m250 -5 c11 -13 8 -22 -14 -53 -25 -36 -26 -37
-6 -40 31 -5 24 -22 -10 -22 -36 0 -40 24 -10 63 25 31 28 56 5 37 -20 -17
-32 -5 -15 15 16 19 34 19 50 0z m119 1 c17 -20 10 -97 -10 -109 -31 -20 -49
-1 -49 51 0 64 30 93 59 58z m91 -51 c0 -37 -4 -65 -10 -65 -5 0 -10 22 -10
49 0 27 -3 56 -6 65 -4 11 -1 16 10 16 13 0 16 -12 16 -65z m110 55 c0 -5 -7
-10 -15 -10 -22 0 -18 -17 5 -23 29 -7 29 -73 0 -82 -23 -7 -53 12 -44 27 4 6
10 6 17 -1 18 -18 27 -13 27 14 0 18 -5 25 -20 25 -16 0 -20 7 -20 30 0 25 4
30 25 30 14 0 25 -4 25 -10z m-513 -116 c-9 -9 -28 6 -21 18 4 6 10 6 17 -1 6
-6 8 -13 4 -17z"/>
<path d="M3117 2710 c-16 -18 -24 -37 -20 -46 3 -9 0 -20 -8 -25 -9 -5 -10 -9
-2 -9 24 0 76 90 60 106 -2 3 -16 -9 -30 -26z"/>
<path d="M3241 2706 c-29 -30 -30 -34 -14 -40 17 -7 17 -8 -1 -22 -11 -8 -15
-14 -10 -14 19 0 54 45 60 78 4 18 5 32 2 32 -2 0 -19 -15 -37 -34z"/>
<path d="M3026 2728 c-9 -12 -14 -24 -11 -26 7 -7 55 27 55 38 0 18 -29 10
-44 -12z"/>
<path d="M1730 2066 l0 -126 45 0 c51 0 99 20 109 45 3 9 6 45 6 80 0 87 -22
114 -102 122 l-58 6 0 -127z"/>
<path d="M1730 1611 l0 -171 54 0 c62 0 100 24 122 76 32 76 5 203 -49 239
-13 8 -48 18 -76 22 l-51 6 0 -172z"/>
<path d="M4870 2030 l0 -160 64 0 c85 0 114 12 131 55 21 49 19 161 -3 205
-22 45 -53 60 -129 60 l-63 0 0 -160z"/>
<path d="M2740 949 c0 -11 5 -17 10 -14 6 3 10 13 10 21 0 8 -4 14 -10 14 -5
0 -10 -9 -10 -21z"/>
<path d="M2850 950 c0 -11 5 -20 10 -20 6 0 10 9 10 20 0 11 -4 20 -10 20 -5
0 -10 -9 -10 -20z"/>
<path d="M3291 943 c3 -71 29 -82 29 -12 0 28 -4 39 -15 39 -10 0 -14 -9 -14
-27z"/>
<path d="M4060 961 c0 -6 5 -13 10 -16 6 -3 10 1 10 9 0 9 -4 16 -10 16 -5 0
-10 -4 -10 -9z"/>
<path d="M4062 906 c1 -10 8 -17 13 -17 15 1 12 24 -3 29 -9 3 -13 -2 -10 -12z"/>
<path d="M4181 924 c0 -11 3 -14 6 -6 3 7 2 16 -1 19 -3 4 -6 -2 -5 -13z"/>
<path d="M4290 949 c0 -24 23 -21 28 4 2 10 -3 17 -12 17 -10 0 -16 -9 -16
-21z"/>
<path d="M3620 485 c0 -25 5 -45 10 -45 6 0 10 20 10 45 0 25 -4 45 -10 45 -5
0 -10 -20 -10 -45z"/>
</g>
</svg>
