<?xml version="1.0" standalone="no"?>
<!DOCTYPE svg PUBLIC "-//W3C//DTD SVG 20010904//EN"
 "http://www.w3.org/TR/2001/REC-SVG-20010904/DTD/svg10.dtd">
<svg version="1.0" xmlns="http://www.w3.org/2000/svg"
 width="547.000000pt" height="212.000000pt" viewBox="0 0 547.000000 212.000000"
 preserveAspectRatio="xMidYMid meet">

<g transform="translate(0.000000,212.000000) scale(0.100000,-0.100000)"
fill="#000000" stroke="none">
<path d="M0 1060 l0 -1060 2735 0 2735 0 0 1060 0 1060 -2735 0 -2735 0 0
-1060z m1314 524 c124 -32 219 -101 270 -195 21 -37 25 -53 17 -59 -7 -4 -51
-13 -99 -20 -80 -12 -87 -11 -97 5 -41 69 -71 99 -123 123 -50 23 -69 27 -162
26 -224 0 -337 -89 -348 -274 -6 -111 15 -178 77 -240 68 -67 154 -94 284 -88
145 7 232 57 276 158 l21 48 72 -14 c40 -7 85 -16 101 -18 l27 -5 0 279 0 280
100 0 100 0 2 -357 3 -358 283 -3 282 -2 0 -70 0 -70 -385 0 -385 0 0 148 0
147 -29 -60 c-35 -73 -119 -156 -195 -191 -93 -42 -185 -57 -331 -51 -156 6
-235 28 -327 90 -74 50 -128 118 -160 202 -32 84 -32 225 1 308 45 116 173
218 320 257 121 32 290 33 405 4z m1256 -261 c1 -148 5 -288 9 -312 12 -59 38
-91 97 -121 43 -21 62 -24 159 -24 130 0 187 14 231 58 47 47 54 99 54 401 l0
265 101 0 101 0 -4 -307 c-3 -298 -4 -310 -27 -360 -60 -135 -208 -202 -444
-203 -188 0 -317 39 -397 121 -70 72 -74 94 -78 442 l-3 307 100 0 101 0 0
-267z m1513 238 c101 -40 167 -117 167 -196 l0 -36 -37 6 c-21 4 -45 9 -54 11
-12 3 -18 -9 -27 -58 -23 -127 -45 -298 -40 -303 3 -3 42 -11 86 -17 58 -9 82
-16 82 -26 0 -28 -33 -82 -70 -116 -86 -77 -216 -98 -585 -94 l-250 3 0 428 0
429 335 -4 c322 -4 337 -5 393 -27z m623 -47 c4 -31 -7 -70 -50 -183 -31 -79
-56 -148 -56 -153 0 -6 15 7 33 29 69 83 91 103 109 103 37 0 17 -41 -62 -126
-44 -48 -80 -90 -80 -94 0 -4 23 -10 51 -13 28 -4 62 -13 75 -22 24 -16 32
-49 14 -60 -5 -3 -10 1 -10 9 0 23 -27 33 -103 39 -66 5 -67 4 -74 -21 -3 -14
-1 -38 5 -54 6 -18 7 -28 0 -28 -5 0 -17 18 -25 39 l-15 39 -32 -19 c-62 -38
-136 -12 -136 48 0 22 -4 20 -61 -22 -34 -25 -67 -45 -74 -45 -6 0 -20 9 -30
20 -17 19 -17 25 -6 58 16 42 65 118 114 176 33 38 36 40 98 40 63 1 64 1 67
-27 2 -16 -10 -75 -27 -133 -17 -57 -31 -106 -31 -109 0 -10 41 -5 79 11 39
15 40 17 52 87 15 91 46 188 100 308 23 52 44 109 46 127 7 42 23 29 29 -24z
m215 -114 c24 -13 25 -46 2 -54 -10 -3 -24 -9 -32 -12 -10 -5 -11 -1 -5 17 4
13 7 32 6 42 -1 20 2 21 29 7z m-7 -126 c24 -9 20 -33 -23 -130 -46 -103 -58
-144 -43 -144 6 0 14 4 17 10 3 5 16 15 28 21 18 10 17 6 -7 -20 -45 -47 -106
-39 -106 14 0 11 20 64 44 118 44 97 47 139 6 72 -19 -31 -50 -48 -50 -27 0
21 78 83 117 92 1 0 8 -3 17 -6z"/>
<path d="M3560 1350 l0 -100 158 0 c169 0 221 8 261 38 37 27 41 89 7 121 -35
33 -82 40 -263 41 l-163 0 0 -100z"/>
<path d="M3560 990 l0 -123 193 5 c209 5 246 13 285 63 31 39 29 85 -5 117
-47 45 -77 51 -280 56 l-193 4 0 -122z"/>
<path d="M4380 1242 c-8 -7 -29 -24 -46 -37 -34 -27 -123 -185 -104 -185 25 0
129 112 150 161 24 57 24 83 0 61z"/>
</g>
</svg>
