<?xml version="1.0" standalone="no"?>
<!DOCTYPE svg PUBLIC "-//W3C//DTD SVG 20010904//EN"
 "http://www.w3.org/TR/2001/REC-SVG-20010904/DTD/svg10.dtd">
<svg version="1.0" xmlns="http://www.w3.org/2000/svg"
 width="317.000000pt" height="151.000000pt" viewBox="0 0 317.000000 151.000000"
 preserveAspectRatio="xMidYMid meet">

<g transform="translate(0.000000,151.000000) scale(0.100000,-0.100000)"
fill="#000000" stroke="none">
<path d="M975 1086 c-66 -29 -103 -96 -79 -142 19 -37 33 -46 62 -39 24 6 24
5 17 -47 -8 -60 -39 -138 -54 -138 -6 0 -11 5 -11 11 0 35 -36 125 -62 155
-45 51 -102 44 -133 -16 -17 -33 -20 -116 -5 -125 6 -4 10 11 10 38 0 50 31
105 68 118 33 12 67 -25 87 -97 32 -112 63 -133 95 -61 26 59 35 160 21 243
-16 90 -7 98 99 90 41 -3 86 -8 100 -12 17 -5 22 -4 15 4 -12 12 -114 32 -164
32 -20 -1 -49 -7 -66 -14z m-5 -75 c0 -25 -3 -28 -26 -23 -19 3 -25 1 -20 -7
4 -6 14 -11 22 -11 19 0 18 -24 -2 -41 -14 -11 -18 -10 -30 5 -11 16 -11 24 2
54 28 67 54 78 54 23z"/>
<path d="M2050 1019 c-19 -5 -48 -6 -65 -3 -24 5 -28 4 -18 -7 7 -7 34 -12 63
-11 31 0 48 -3 44 -9 -3 -5 -3 -18 1 -27 6 -15 8 -15 15 3 11 26 12 65 3 64
-5 -1 -24 -5 -43 -10z"/>
<path d="M1871 981 c-14 -24 -14 -31 -1 -31 14 0 32 38 21 45 -6 3 -15 -3 -20
-14z"/>
<path d="M2041 945 c11 -40 6 -56 -13 -37 -32 32 -88 -14 -88 -73 0 -71 72
-85 103 -20 21 44 23 138 3 154 -13 11 -13 7 -5 -24z m-13 -81 c0 -39 -39 -91
-58 -79 -28 17 6 115 39 115 15 0 19 -7 19 -36z"/>
<path d="M1541 906 c-22 -23 -29 -36 -21 -41 6 -4 19 0 29 9 42 38 42 3 0 -50
-57 -72 -59 -103 -6 -130 37 -20 70 -6 88 39 11 25 10 38 -4 76 l-16 46 30 31
c38 39 22 54 -19 19 -30 -25 -48 -21 -36 8 11 30 -13 26 -45 -7z m79 -126 c0
-42 -26 -70 -66 -70 -47 0 -43 22 14 98 24 32 27 33 39 16 7 -10 13 -29 13
-44z"/>
<path d="M1076 897 c-62 -58 -58 -131 7 -125 18 2 31 7 29 13 -1 5 -16 8 -33
7 -25 -3 -30 0 -27 15 2 12 14 19 36 21 39 4 43 22 5 22 l-28 1 38 33 c20 18
37 36 37 40 0 16 -32 3 -64 -27z"/>
<path d="M1154 908 c-4 -13 -2 -24 4 -26 6 -2 8 -19 5 -42 -4 -25 -1 -46 7
-55 14 -17 51 -20 67 -4 8 8 16 7 30 -2 26 -16 49 -7 66 28 24 48 28 78 12 99
-12 15 -14 15 -9 2 7 -22 -30 -106 -51 -114 -26 -10 -28 2 -10 50 17 45 14 66
-10 66 -16 0 -25 -22 -25 -60 0 -19 -9 -36 -27 -50 -27 -21 -28 -21 -31 -3 -2
11 1 38 6 60 13 58 -17 104 -34 51z"/>
<path d="M1422 923 c-19 -8 -49 -73 -56 -126 -6 -39 -4 -53 10 -68 18 -20 44
-26 44 -9 0 6 -9 10 -20 10 -14 0 -20 7 -20 23 0 20 4 23 33 19 29 -3 36 1 60
35 52 75 21 145 -51 116z m63 -40 c-12 -50 -74 -117 -91 -100 -9 9 5 60 26 95
14 23 27 32 46 32 24 0 25 -3 19 -27z"/>
<path d="M1696 901 c-18 -18 -24 -31 -17 -35 6 -4 11 -25 11 -46 0 -21 5 -42
10 -45 15 -9 51 5 44 16 -3 5 -14 7 -24 4 -17 -5 -18 -3 -5 42 7 26 16 55 20
64 12 30 -11 29 -39 0z"/>
<path d="M1820 910 c-11 -11 -20 -24 -20 -28 0 -5 -8 -8 -17 -8 -10 1 -19 -3
-20 -9 -1 -5 5 -9 13 -9 10 1 14 -9 14 -37 0 -34 4 -40 27 -45 20 -5 30 -2 44
14 l17 21 5 -20 c7 -26 40 -22 45 5 3 14 0 17 -13 13 -12 -5 -15 -3 -11 11 14
48 18 92 7 92 -6 0 -11 -6 -11 -12 0 -7 -7 -2 -16 10 -19 27 -38 28 -64 2z
m60 -10 c0 -37 -55 -124 -71 -114 -12 7 -11 64 1 64 6 0 10 5 10 12 0 16 31
48 47 48 7 0 13 -5 13 -10z"/>
<path d="M2190 908 c-20 -21 -22 -22 -31 -5 -14 24 -36 21 -55 -8 -23 -35 -10
-44 22 -14 l27 24 -7 -61 c-4 -33 -3 -63 0 -67 4 -4 17 19 30 50 24 59 49 92
60 80 4 -4 1 -48 -6 -98 -8 -59 -9 -94 -2 -101 6 -6 14 25 22 87 11 88 10 98
-6 116 -22 24 -29 24 -54 -3z"/>
<path d="M2286 917 c-22 -16 -13 -41 22 -62 l27 -16 -22 20 c-27 23 -29 37 -7
45 28 11 55 6 72 -12 10 -11 13 -12 7 -2 -24 40 -65 52 -99 27z"/>
<path d="M781 841 c-24 -24 -27 -51 -9 -69 17 -17 33 -15 18 3 -10 12 -9 20 4
40 20 30 33 32 41 5 11 -36 -34 -100 -72 -100 -14 0 -21 -4 -18 -10 11 -18 56
-10 80 14 35 35 42 72 18 104 -26 35 -38 37 -62 13z"/>
<path d="M2340 828 c0 -10 -17 -26 -37 -37 l-38 -20 31 -1 c40 0 70 31 55 57
-9 16 -10 17 -11 1z"/>
<path d="M833 615 c0 -27 2 -38 4 -22 2 15 2 37 0 50 -2 12 -4 0 -4 -28z"/>
<path d="M854 646 c1 -8 5 -19 9 -22 11 -12 8 -42 -5 -47 -10 -4 -10 -6 0 -6
17 -1 26 25 16 47 -4 9 -8 20 -8 24 -1 3 -4 9 -8 13 -3 4 -5 0 -4 -9z"/>
<path d="M1387 642 c4 -16 -1 -24 -18 -32 -17 -7 -19 -9 -5 -7 26 3 44 33 29
48 -9 9 -11 7 -6 -9z"/>
<path d="M2032 648 c-24 -24 -8 -79 23 -78 5 0 2 5 -7 11 -21 12 -24 49 -6 67
7 7 10 12 7 12 -3 0 -10 -5 -17 -12z"/>
<path d="M2207 653 c-4 -3 -7 -24 -7 -46 0 -48 8 -45 12 4 1 18 7 37 13 41 7
5 7 8 -1 8 -6 0 -14 -3 -17 -7z"/>
<path d="M982 610 c0 -25 2 -38 5 -30 3 8 10 23 15 34 7 12 7 16 0 12 -6 -3
-13 2 -15 11 -3 10 -5 -2 -5 -27z"/>
<path d="M1498 638 c-2 -7 -1 -26 2 -43 l6 -30 5 32 c6 34 -4 66 -13 41z"/>
<path d="M899 613 c-13 -16 -12 -17 4 -4 16 13 21 21 13 21 -2 0 -10 -8 -17
-17z"/>
<path d="M947 609 c4 -12 0 -25 -8 -30 -11 -7 -10 -9 4 -9 12 0 17 8 17 30 0
17 -4 30 -9 30 -5 0 -7 -9 -4 -21z"/>
<path d="M1034 615 c-8 -19 2 -45 16 -45 6 0 9 4 6 9 -3 5 1 14 9 21 8 7 15
17 15 22 0 6 -9 0 -21 -13 l-21 -24 5 23 c6 25 -1 30 -9 7z"/>
<path d="M1101 598 c2 -28 2 -29 6 -8 3 14 10 28 17 32 7 5 5 8 -6 8 -14 0
-18 -8 -17 -32z"/>
<path d="M1140 624 c0 -5 6 -18 13 -28 12 -16 14 -16 25 11 11 25 11 26 -2 10
-14 -18 -15 -18 -25 0 -6 10 -11 13 -11 7z"/>
<path d="M1414 615 c-8 -20 2 -45 18 -44 10 0 10 2 1 6 -7 2 -13 13 -13 23 0
10 6 21 13 23 9 4 9 6 -1 6 -7 1 -15 -6 -18 -14z"/>
<path d="M1460 620 c12 -8 13 -13 2 -30 -10 -17 -10 -20 3 -20 10 0 15 10 15
30 0 22 -5 30 -17 30 -15 0 -16 -2 -3 -10z"/>
<path d="M1542 600 c0 -19 2 -27 5 -17 2 9 2 25 0 35 -3 9 -5 1 -5 -18z"/>
<path d="M1570 616 c0 -8 6 -17 13 -19 9 -4 8 -8 -3 -16 -13 -9 -13 -11 3 -11
18 0 24 25 7 35 -6 4 -8 11 -5 16 4 5 1 9 -4 9 -6 0 -11 -6 -11 -14z"/>
<path d="M1620 616 c0 -8 6 -17 13 -19 9 -4 8 -8 -3 -16 -13 -9 -13 -11 3 -11
19 0 23 25 6 36 -8 4 -7 9 2 15 11 7 10 9 -3 9 -10 0 -18 -6 -18 -14z"/>
<path d="M1666 615 c-7 -19 3 -45 17 -45 6 0 7 3 4 7 -4 3 3 18 15 32 l23 26
-27 -24 c-27 -24 -40 -17 -16 7 8 8 8 12 1 12 -6 0 -13 -7 -17 -15z"/>
<path d="M1740 600 c0 -16 2 -30 4 -30 2 0 6 14 8 30 3 17 1 30 -4 30 -4 0 -8
-13 -8 -30z"/>
<path d="M1782 600 c0 -19 2 -27 5 -17 2 9 2 25 0 35 -3 9 -5 1 -5 -18z"/>
<path d="M1806 613 c-4 -9 0 -22 9 -30 8 -7 13 -10 10 -6 -3 3 5 18 17 32 l23
26 -27 -24 c-27 -24 -40 -17 -16 7 8 8 8 12 1 12 -6 0 -14 -8 -17 -17z"/>
<path d="M2124 615 c-8 -20 2 -45 18 -45 10 0 10 3 -1 9 -8 5 -12 18 -8 30 6
24 -1 29 -9 6z"/>
<path d="M2165 620 c3 -5 8 -10 11 -10 2 0 4 5 4 10 0 6 -5 10 -11 10 -5 0 -7
-4 -4 -10z"/>
<path d="M2234 615 c-8 -20 2 -45 17 -45 7 0 9 3 6 7 -4 3 3 17 15 30 12 13
18 23 14 23 -4 0 -16 -10 -27 -22 -15 -19 -18 -20 -19 -6 0 9 6 19 13 21 9 4
9 6 -1 6 -7 1 -15 -6 -18 -14z"/>
<path d="M1258 603 c7 -3 16 -2 19 1 4 3 -2 6 -13 5 -11 0 -14 -3 -6 -6z"/>
<path d="M1928 603 c6 -2 18 -2 25 0 6 3 1 5 -13 5 -14 0 -19 -2 -12 -5z"/>
<path d="M2165 580 c-3 -5 -1 -10 4 -10 6 0 11 5 11 10 0 6 -2 10 -4 10 -3 0
-8 -4 -11 -10z"/>
</g>
</svg>
