<?xml version="1.0" standalone="no"?>
<!DOCTYPE svg PUBLIC "-//W3C//DTD SVG 20010904//EN"
 "http://www.w3.org/TR/2001/REC-SVG-20010904/DTD/svg10.dtd">
<svg version="1.0" xmlns="http://www.w3.org/2000/svg"
 width="225.000000pt" height="225.000000pt" viewBox="0 0 225.000000 225.000000"
 preserveAspectRatio="xMidYMid meet">

<g transform="translate(0.000000,225.000000) scale(0.100000,-0.100000)"
fill="#000000" stroke="none">
<path d="M0 1125 l0 -1125 1125 0 1125 0 0 1125 0 1125 -1125 0 -1125 0 0
-1125z m970 898 l0 -34 68 3 67 3 3 43 c4 52 32 61 32 9 0 -46 15 -57 82 -57
l58 0 0 34 c0 30 20 63 31 52 2 -2 2 -29 1 -60 l-4 -56 -184 0 -184 0 0 61 c0
54 2 60 15 49 8 -7 15 -28 15 -47z m-30 -114 c0 -11 -22 -44 -50 -73 l-50 -53
0 -163 c0 -143 -2 -161 -15 -150 -12 10 -15 43 -15 173 l0 161 62 63 c34 35
64 63 65 63 2 0 3 -9 3 -21z m58 -22 c3 -29 7 -37 23 -37 16 0 19 7 19 41 0
52 24 48 28 -4 2 -28 8 -37 22 -37 14 0 20 9 22 37 4 52 28 56 28 4 0 -37 3
-41 24 -41 21 0 25 5 28 37 4 52 28 56 28 4 0 -34 3 -41 19 -41 16 0 20 8 23
37 5 54 28 55 28 1 0 -37 5 -49 35 -78 22 -21 35 -43 35 -59 0 -24 -2 -24 -43
17 l-43 42 -149 0 -149 0 -43 -42 c-36 -35 -43 -39 -43 -22 0 11 18 38 40 59
35 34 40 45 40 83 0 54 23 53 28 -1z m452 -243 c0 -131 -3 -164 -15 -174 -13
-11 -15 7 -15 152 l0 164 -50 49 c-34 33 -50 57 -50 74 0 23 6 19 65 -39 l65
-64 0 -162z m-430 71 c48 -25 50 -27 50 -69 0 -53 16 -68 67 -64 l38 3 5 54
c5 54 5 54 56 76 l50 22 42 -39 c42 -38 42 -39 42 -110 0 -61 -2 -69 -15 -58
-9 8 -15 30 -15 59 0 35 -7 54 -28 80 -28 33 -28 33 -60 17 -28 -15 -32 -22
-32 -58 0 -35 -6 -46 -40 -78 -22 -20 -40 -42 -40 -48 0 -7 16 -29 35 -51 l35
-38 0 -155 c0 -142 -2 -156 -20 -173 -20 -18 -20 -17 -20 146 -1 149 -2 166
-21 188 l-20 24 -24 -23 c-25 -23 -25 -26 -25 -183 0 -141 -2 -158 -15 -147
-12 10 -15 42 -15 169 l0 157 30 29 c40 38 38 67 -5 106 -30 27 -35 39 -35 75
0 39 -4 45 -31 60 -30 15 -32 15 -60 -12 -24 -23 -29 -36 -29 -75 0 -29 -6
-51 -15 -59 -13 -11 -15 -4 -15 56 0 65 2 70 37 106 20 21 39 38 40 38 2 0 26
-11 53 -25z m-59 -209 l-41 -42 0 -88 c0 -77 -2 -87 -15 -76 -11 9 -15 34 -15
93 l0 81 53 54 c39 39 53 49 55 36 2 -9 -14 -35 -37 -58z m358 18 l51 -56 0
-77 c0 -71 -9 -101 -32 -101 -4 0 -8 39 -8 86 l0 87 -40 43 c-38 41 -51 74
-31 74 5 0 32 -25 60 -56z m-259 -22 c0 -10 -13 -31 -30 -47 l-30 -29 0 -139
c0 -123 -2 -138 -15 -127 -12 10 -15 39 -15 142 l0 129 37 45 c40 48 53 54 53
26z m230 -198 c0 -118 -2 -133 -20 -149 -20 -18 -20 -17 -20 132 0 147 0 150
-25 173 -14 13 -25 33 -25 44 0 17 8 13 45 -24 l45 -44 0 -132z m576 -365 c23
-11 49 -28 58 -37 15 -17 14 -20 -12 -45 l-27 -26 -52 26 c-43 21 -61 24 -98
19 -80 -13 -135 -77 -135 -161 0 -107 66 -165 188 -165 l72 0 0 50 0 50 -60 0
-60 0 0 45 0 45 100 0 100 0 0 -140 0 -140 -103 0 c-62 0 -123 6 -153 15 -195
58 -237 330 -69 444 77 52 168 59 251 20z m-1474 -98 l3 -120 85 120 84 119
54 0 54 0 -24 -32 c-13 -18 -52 -72 -86 -120 l-63 -87 90 -123 c50 -68 91
-126 91 -130 0 -5 -22 -8 -49 -8 l-49 0 -64 90 c-34 49 -66 89 -69 90 -3 0
-35 -40 -70 -90 -34 -49 -64 -90 -66 -90 -2 0 -3 113 -3 250 l0 250 40 0 39 0
3 -119z m488 -131 l0 -250 -45 0 -45 0 0 250 0 250 45 0 45 0 0 -250z m440
103 l0 147 45 0 45 0 0 -250 c0 -137 -3 -250 -7 -250 -4 0 -74 66 -155 147
l-148 148 0 -148 0 -147 -40 0 -40 0 0 252 0 253 150 -150 150 -150 0 148z
m-790 -448 c11 -13 10 -14 -4 -9 -9 3 -16 10 -16 15 0 13 6 11 20 -6z m47 -47
c-2 -13 -4 -3 -4 22 0 25 2 35 4 23 2 -13 2 -33 0 -45z m370 20 c-3 -8 -6 -5
-6 6 -1 11 2 17 5 13 3 -3 4 -12 1 -19z m60 0 c-3 -8 -6 -5 -6 6 -1 11 2 17 5
13 3 -3 4 -12 1 -19z m576 -8 c3 -11 1 -18 -4 -14 -5 3 -9 12 -9 20 0 20 7 17
13 -6z m147 -15 c14 -19 14 -19 -2 -6 -10 7 -18 18 -18 24 0 6 1 8 3 6 1 -2 9
-13 17 -24z"/>
</g>
</svg>
